<svg width="888" height="742" viewBox="0 0 888 742" fill="none" xmlns="http://www.w3.org/2000/svg">
<rect width="888" height="742" fill="#E5E5E5"/>
<g clip-path="url(#clip0)">
<path d="M301.896 -9.61974H297.864V-120.073C297.864 -128.468 296.211 -136.781 292.998 -144.537C289.785 -152.293 285.077 -159.34 279.14 -165.276C273.204 -171.212 266.157 -175.921 258.401 -179.134C250.645 -182.347 242.332 -184 233.937 -184H-0.0726166C-8.46768 -184 -16.7805 -182.347 -24.5366 -179.134C-32.2926 -175.921 -39.3399 -171.212 -45.2761 -165.276C-51.2123 -159.34 -55.9212 -152.293 -59.1339 -144.537C-62.3465 -136.781 -64 -128.468 -64 -120.073V485.881C-64 494.276 -62.3465 502.589 -59.1338 510.345C-55.9212 518.101 -51.2123 525.148 -45.2761 531.084C-39.3399 537.021 -32.2926 541.729 -24.5366 544.942C-16.7805 548.155 -8.46768 549.808 -0.0726166 549.808H233.937C242.332 549.808 250.645 548.155 258.401 544.942C266.157 541.729 273.204 537.021 279.14 531.084C285.077 525.148 289.785 518.101 292.998 510.345C296.211 502.589 297.864 494.276 297.864 485.881V69.0026H301.896V-9.61974Z" fill="#E6E6E6"/>
<path d="M243.248 31H215.253C216.541 33.4925 217.032 36.1967 216.684 38.8745C216.336 41.5522 215.16 44.1214 213.259 46.3555C211.357 48.5897 208.789 50.4203 205.781 51.6862C202.773 52.952 199.416 53.6142 196.008 53.6144H73.1448C69.7361 53.6142 66.3797 52.952 63.3714 51.6862C60.3631 50.4203 57.7952 48.5897 55.8938 46.3555C53.9925 44.1214 52.8161 41.5522 52.4683 38.8745C52.1204 36.1967 52.6118 33.4925 53.8992 31H27.7524C22.0067 31 16.3174 31.8937 11.0091 33.63C5.70081 35.3663 0.877585 37.9113 -3.1852 41.1196C-7.24798 44.3279 -10.4708 48.1367 -12.6695 52.3286C-14.8683 56.5205 -16 61.0133 -16 65.5505V503.449C-16 507.987 -14.8683 512.479 -12.6695 516.671C-10.4708 520.863 -7.248 524.672 -3.18521 527.88C0.877571 531.089 5.70079 533.634 11.0091 535.37C16.3174 537.106 22.0067 538 27.7524 538H243.248C248.993 538 254.683 537.106 259.991 535.37C265.299 533.634 270.122 531.089 274.185 527.88C278.248 524.672 281.471 520.863 283.67 516.671C285.868 512.479 287 507.987 287 503.449V65.5505C287 61.0133 285.868 56.5205 283.67 52.3286C281.471 48.1367 278.248 44.3279 274.185 41.1196C270.122 37.9113 265.299 35.3663 259.991 33.63C254.683 31.8937 248.993 31 243.248 31V31Z" fill="white"/>
<path d="M109.672 91.6347H95.6331C95.1395 91.6347 94.666 91.8308 94.317 92.1799C93.9679 92.529 93.7718 93.0024 93.7718 93.496V99.6583C93.7718 100.152 93.9679 100.625 94.317 100.974C94.666 101.324 95.1395 101.52 95.6331 101.52H97.9596V110.753H107.346V101.52H109.672C110.166 101.52 110.639 101.324 110.989 100.974C111.338 100.625 111.534 100.152 111.534 99.6583V93.496C111.534 93.0024 111.338 92.529 110.989 92.1799C110.639 91.8308 110.166 91.6347 109.672 91.6347V91.6347Z" fill="#E6E6E6"/>
<path d="M123.734 148.032C115.136 135.45 110.741 120.47 111.177 105.238C111.185 104.887 111.071 104.543 110.855 104.266C110.638 103.989 110.332 103.796 109.989 103.719V101.056H95.1619V103.682H94.9576C94.5541 103.682 94.1673 103.843 93.8824 104.129C93.5974 104.415 93.4376 104.802 93.4382 105.205C93.4382 105.242 93.4396 105.279 93.4423 105.316C94.6105 121.599 90.666 136.202 81.6089 149.124C81.0878 149.866 80.8215 150.758 80.8501 151.665L82.4714 201.816C82.5104 202.935 82.9799 203.995 83.7819 204.776C84.5839 205.556 85.6565 205.997 86.7757 206.006H120.313C121.445 205.997 122.529 205.546 123.333 204.75C124.138 203.953 124.599 202.874 124.62 201.742L125.245 153.049C125.263 151.262 124.736 149.512 123.734 148.032Z" fill="#E6E6E6"/>
<path d="M118.425 164.69H89.2336C88.8015 164.69 88.3745 164.784 87.9819 164.964C87.5893 165.145 87.2403 165.408 86.9589 165.736C86.6776 166.064 86.4705 166.449 86.3518 166.864C86.2331 167.28 86.2057 167.716 86.2714 168.143L90.6827 196.816H116.013L121.371 168.24C121.452 167.807 121.437 167.361 121.326 166.935C121.216 166.509 121.013 166.112 120.731 165.773C120.45 165.434 120.098 165.162 119.699 164.975C119.3 164.787 118.866 164.69 118.425 164.69V164.69Z" fill="white"/>
<path d="M269.957 289.869H255.917C255.424 289.869 254.95 290.065 254.601 290.414C254.252 290.764 254.056 291.237 254.056 291.731V297.893C254.056 298.387 254.252 298.86 254.601 299.209C254.95 299.558 255.424 299.754 255.917 299.754H258.244V308.987H267.63V299.754H269.957C270.45 299.754 270.924 299.558 271.273 299.209C271.622 298.86 271.818 298.387 271.818 297.893V291.731C271.818 291.237 271.622 290.763 271.273 290.414C270.924 290.065 270.45 289.869 269.957 289.869Z" fill="#E6E6E6"/>
<path d="M284.019 346.266C275.42 333.685 271.025 318.705 271.462 303.473C271.47 303.121 271.355 302.778 271.139 302.501C270.922 302.224 270.617 302.031 270.274 301.954V299.291H255.446V301.917H255.242C255.042 301.917 254.844 301.956 254.66 302.033C254.475 302.11 254.308 302.222 254.167 302.364C254.026 302.505 253.914 302.673 253.838 302.858C253.761 303.042 253.722 303.24 253.722 303.44C253.723 303.477 253.724 303.514 253.727 303.551C254.895 319.834 250.95 334.436 241.893 347.358C241.372 348.101 241.106 348.993 241.134 349.899L242.756 400.051C242.795 401.169 243.264 402.23 244.066 403.01C244.868 403.791 245.941 404.232 247.06 404.241H280.597C281.729 404.232 282.813 403.781 283.617 402.984C284.422 402.188 284.884 401.109 284.904 399.977L285.529 351.284C285.547 349.497 285.021 347.746 284.019 346.266V346.266Z" fill="#E6E6E6"/>
<path d="M278.71 362.925H249.518C249.086 362.925 248.659 363.018 248.266 363.199C247.874 363.379 247.525 363.643 247.243 363.97C246.962 364.298 246.755 364.683 246.636 365.099C246.518 365.514 246.49 365.951 246.556 366.378L250.967 395.051H276.297L281.655 366.474C281.736 366.041 281.721 365.596 281.611 365.17C281.5 364.743 281.297 364.347 281.016 364.008C280.735 363.669 280.382 363.396 279.983 363.209C279.585 363.022 279.15 362.925 278.71 362.925H278.71Z" fill="white"/>
<path d="M89.935 454.257H83.2755C83.0413 454.257 82.8168 454.35 82.6512 454.515C82.4856 454.681 82.3926 454.906 82.3926 455.14V458.063C82.3926 458.297 82.4856 458.521 82.6512 458.687C82.8168 458.853 83.0413 458.946 83.2755 458.946H84.3791V463.325H88.8314V458.946H89.935C90.1691 458.946 90.3937 458.853 90.5593 458.687C90.7249 458.521 90.8179 458.297 90.8179 458.063V455.14C90.8179 454.906 90.7249 454.681 90.5593 454.515C90.3937 454.35 90.1691 454.257 89.935 454.257Z" fill="#E6E6E6"/>
<path d="M96.6052 481.008C92.5268 475.041 90.4418 467.935 90.649 460.71C90.6527 460.543 90.5985 460.38 90.4958 460.249C90.3931 460.117 90.248 460.026 90.0853 459.989V458.726H83.052V459.971H82.9551C82.8604 459.972 82.7665 459.99 82.679 460.027C82.5915 460.063 82.512 460.116 82.4451 460.183C82.3782 460.251 82.3251 460.33 82.289 460.418C82.2528 460.505 82.2343 460.599 82.2344 460.694C82.2344 460.712 82.235 460.729 82.2364 460.747C82.8855 468.119 80.8964 475.483 76.6233 481.527C76.376 481.879 76.2497 482.302 76.2633 482.732L77.0323 506.521C77.0508 507.051 77.2735 507.554 77.6539 507.925C78.0344 508.295 78.5432 508.504 79.0741 508.508H94.9823C95.5193 508.504 96.0333 508.29 96.4149 507.912C96.7966 507.535 97.0156 507.023 97.0253 506.486L97.3217 483.389C97.3304 482.541 97.0805 481.711 96.6052 481.008V481.008Z" fill="#E6E6E6"/>
<path d="M94.3157 489.753H79.1366V497.343H94.3157V489.753Z" fill="white"/>
<path d="M120.935 454.257H114.276C114.041 454.257 113.817 454.35 113.651 454.515C113.486 454.681 113.393 454.906 113.393 455.14V458.063C113.393 458.297 113.486 458.521 113.651 458.687C113.817 458.853 114.041 458.946 114.276 458.946H115.379V463.325H119.831V458.946H120.935C121.169 458.946 121.394 458.853 121.559 458.687C121.725 458.521 121.818 458.297 121.818 458.063V455.14C121.818 454.906 121.725 454.681 121.559 454.515C121.394 454.35 121.169 454.257 120.935 454.257Z" fill="#E6E6E6"/>
<path d="M127.605 481.008C123.527 475.041 121.442 467.935 121.649 460.71C121.653 460.543 121.599 460.38 121.496 460.249C121.393 460.117 121.248 460.026 121.085 459.989V458.726H114.052V459.971H113.955C113.86 459.972 113.767 459.99 113.679 460.027C113.592 460.063 113.512 460.116 113.445 460.183C113.378 460.251 113.325 460.33 113.289 460.418C113.253 460.505 113.234 460.599 113.234 460.694C113.234 460.712 113.235 460.729 113.236 460.747C113.886 468.119 111.896 475.483 107.623 481.527C107.376 481.879 107.25 482.302 107.263 482.732L108.032 506.521C108.051 507.051 108.274 507.554 108.654 507.925C109.034 508.295 109.543 508.504 110.074 508.508H125.982C126.519 508.504 127.033 508.29 127.415 507.912C127.797 507.535 128.016 507.023 128.025 506.486L128.322 483.389C128.33 482.541 128.081 481.711 127.605 481.008Z" fill="#E6E6E6"/>
<path d="M125.316 489.753H110.137V497.343H125.316V489.753Z" fill="white"/>
<path d="M151.935 454.257H145.276C145.041 454.257 144.817 454.35 144.651 454.515C144.486 454.681 144.393 454.906 144.393 455.14V458.063C144.393 458.297 144.486 458.521 144.651 458.687C144.817 458.853 145.041 458.946 145.276 458.946H146.379V463.325H150.831V458.946H151.935C152.169 458.946 152.394 458.853 152.559 458.687C152.725 458.521 152.818 458.297 152.818 458.063V455.14C152.818 454.906 152.725 454.681 152.559 454.515C152.394 454.35 152.169 454.257 151.935 454.257Z" fill="#E6E6E6"/>
<path d="M158.605 481.008C154.527 475.041 152.442 467.935 152.649 460.71C152.653 460.543 152.599 460.38 152.496 460.249C152.393 460.117 152.248 460.026 152.085 459.989V458.726H145.052V459.971H144.955C144.86 459.972 144.767 459.99 144.679 460.027C144.592 460.063 144.512 460.116 144.445 460.183C144.378 460.251 144.325 460.33 144.289 460.418C144.253 460.505 144.234 460.599 144.234 460.694C144.234 460.712 144.235 460.729 144.236 460.747C144.886 468.119 142.896 475.483 138.623 481.527C138.376 481.879 138.25 482.302 138.263 482.732L139.032 506.521C139.051 507.051 139.274 507.554 139.654 507.925C140.034 508.295 140.543 508.504 141.074 508.508H156.982C157.519 508.504 158.033 508.29 158.415 507.912C158.797 507.535 159.016 507.023 159.025 506.486L159.322 483.389C159.33 482.541 159.081 481.711 158.605 481.008Z" fill="#E6E6E6"/>
<path d="M156.316 489.753H141.137V497.343H156.316V489.753Z" fill="white"/>
<path d="M245.567 444.137H231.528C231.284 444.137 231.042 444.185 230.816 444.279C230.59 444.372 230.385 444.509 230.212 444.682C230.039 444.855 229.902 445.06 229.808 445.286C229.715 445.512 229.667 445.754 229.667 445.998V452.161C229.667 452.654 229.863 453.128 230.212 453.477C230.561 453.826 231.034 454.022 231.528 454.022H233.854V463.255H243.241V454.022H245.567C246.061 454.022 246.534 453.826 246.883 453.477C247.232 453.128 247.429 452.654 247.429 452.161V445.998C247.429 445.754 247.38 445.512 247.287 445.286C247.193 445.06 247.056 444.855 246.883 444.682C246.711 444.509 246.505 444.372 246.28 444.279C246.054 444.185 245.812 444.137 245.567 444.137V444.137Z" fill="#E6E6E6"/>
<path d="M259.886 468.975C251.288 456.394 246.893 441.414 247.329 426.182C247.337 425.83 247.223 425.487 247.007 425.21C246.79 424.933 246.484 424.74 246.141 424.663V422H231.314V424.626H231.11C230.91 424.626 230.712 424.666 230.528 424.742C230.343 424.819 230.175 424.931 230.034 425.073C229.893 425.214 229.781 425.382 229.705 425.567C229.629 425.751 229.59 425.949 229.59 426.149C229.59 426.186 229.592 426.223 229.594 426.26C230.762 442.543 226.818 457.146 217.761 470.067C217.24 470.81 216.973 471.702 217.002 472.608L218.623 522.76C218.662 523.878 219.132 524.939 219.934 525.719C220.736 526.5 221.808 526.941 222.928 526.95H256.465C257.597 526.941 258.681 526.49 259.485 525.693C260.29 524.897 260.751 523.818 260.772 522.686L261.397 473.993C261.415 472.206 260.888 470.455 259.886 468.975Z" fill="#E6E6E6"/>
<path d="M253.189 493H223.997C223.565 493 223.138 493.093 222.745 493.274C222.353 493.454 222.004 493.718 221.722 494.046C221.441 494.373 221.234 494.758 221.115 495.174C220.997 495.589 220.969 496.026 221.035 496.453L225.446 525.126H250.776L256.134 496.549C256.215 496.117 256.2 495.671 256.09 495.245C255.979 494.819 255.776 494.422 255.495 494.083C255.214 493.744 254.861 493.471 254.463 493.284C254.064 493.097 253.629 493 253.189 493V493Z" fill="white"/>
<path d="M249.232 212.462H165.544C171.395 180.829 170.049 142.631 165.544 101.551H249.232C244.847 142.631 243.536 180.829 249.232 212.462Z" fill="#E6E6E6"/>
<path d="M211.892 222.148C223.029 222.148 232.058 213.119 232.058 201.982C232.058 190.845 223.029 181.816 211.892 181.816C200.755 181.816 191.726 190.845 191.726 201.982C191.726 213.119 200.755 222.148 211.892 222.148Z" fill="white"/>
<path d="M172.602 359.672H88.9143C94.7652 328.039 93.4192 289.84 88.9143 248.761H172.602C168.217 289.841 166.907 328.039 172.602 359.672Z" fill="#E6E6E6"/>
<path d="M131.262 321.357C142.399 321.357 151.428 312.329 151.428 301.192C151.428 290.054 142.399 281.026 131.262 281.026C120.125 281.026 111.097 290.054 111.097 301.192C111.097 312.329 120.125 321.357 131.262 321.357Z" fill="white"/>
<path d="M268.621 175.52H184.933C190.784 143.887 189.438 105.689 184.933 64.609H268.621C264.236 105.689 262.926 143.887 268.621 175.52Z" fill="#E6E6E6"/>
<path d="M259.281 229.206C270.419 229.206 279.447 220.177 279.447 209.04C279.447 197.903 270.419 188.874 259.281 188.874C248.144 188.874 239.116 197.903 239.116 209.04C239.116 220.177 248.144 229.206 259.281 229.206Z" fill="white"/>
<path d="M268.621 170.479H184.933C190.784 138.846 189.438 100.647 184.933 59.5676H268.621C264.236 100.647 262.926 138.846 268.621 170.479Z" fill="#E6E6E6"/>
<path d="M259.281 224.164C270.419 224.164 279.447 215.136 279.447 203.998C279.447 192.861 270.419 183.833 259.281 183.833C248.144 183.833 239.116 192.861 239.116 203.998C239.116 215.136 248.144 224.164 259.281 224.164Z" fill="white"/>
<path d="M268.621 175.52H184.933C190.784 143.887 189.438 105.689 184.933 64.609H268.621C264.236 105.689 262.926 143.887 268.621 175.52Z" fill="#E6E6E6"/>
<path d="M259.281 229.206C270.419 229.206 279.447 220.177 279.447 209.04C279.447 197.903 270.419 188.874 259.281 188.874C248.144 188.874 239.116 197.903 239.116 209.04C239.116 220.177 248.144 229.206 259.281 229.206Z" fill="white"/>
<path d="M287.779 188.413H13.5249V218.661H287.779V188.413Z" fill="#E6E6E6"/>
<path d="M287.779 338.647H13.5249V368.896H287.779V338.647Z" fill="#E6E6E6"/>
<path d="M287.779 488.882H13.5249V519.13H287.779V488.882Z" fill="#E6E6E6"/>
<path d="M729.488 579L666 534.111C687.412 513.26 706.887 483.57 725.512 450L789 494.889C763.631 523.69 742.141 551.956 729.488 579Z" fill="#525050"/>
<path d="M729.5 531C739.717 531 748 522.717 748 512.5C748 502.283 739.717 494 729.5 494C719.283 494 711 502.283 711 512.5C711 522.717 719.283 531 729.5 531Z" fill="white"/>
<path d="M398.057 357H390.943C390.693 357 390.453 357.092 390.276 357.257C390.099 357.421 390 357.644 390 357.876V360.777C390 360.892 390.024 361.006 390.072 361.113C390.119 361.219 390.189 361.315 390.276 361.397C390.364 361.478 390.468 361.543 390.582 361.587C390.697 361.631 390.819 361.653 390.943 361.653H392.122V366H396.878V361.653H398.057C398.307 361.653 398.547 361.561 398.724 361.397C398.901 361.232 399 361.01 399 360.777V357.876C399 357.644 398.901 357.421 398.724 357.257C398.547 357.092 398.307 357 398.057 357V357Z" fill="#E6E6E6"/>
<path d="M405.251 384.723C400.991 378.369 398.813 370.804 399.029 363.112C399.033 362.934 398.976 362.761 398.869 362.621C398.762 362.481 398.61 362.384 398.44 362.345V361H391.093V362.326H390.992C390.893 362.326 390.795 362.346 390.703 362.385C390.612 362.424 390.529 362.48 390.459 362.552C390.389 362.623 390.334 362.708 390.296 362.801C390.258 362.894 390.239 362.994 390.239 363.095C390.239 363.114 390.239 363.133 390.241 363.151C390.919 371.001 388.841 378.84 384.377 385.274C384.119 385.649 383.987 386.099 384.001 386.557L384.804 411.884C384.824 412.449 385.056 412.984 385.454 413.379C385.851 413.773 386.383 413.996 386.937 414H403.556C404.117 413.995 404.654 413.768 405.053 413.365C405.451 412.963 405.68 412.418 405.69 411.847L406 387.257C406.009 386.354 405.748 385.47 405.251 384.723V384.723Z" fill="#525050"/>
<path opacity="0.2" d="M396 358C396 358.53 395.789 359.039 395.414 359.414C395.039 359.789 394.53 360 394 360C393.47 360 392.961 359.789 392.586 359.414C392.211 359.039 392 358.53 392 358" fill="black"/>
<path d="M402 390H388V399H402V390Z" fill="white"/>
<path d="M644.219 471H630.781C630.309 471 629.856 471.185 629.522 471.513C629.188 471.842 629 472.288 629 472.752V478.554C629 479.019 629.188 479.465 629.522 479.794C629.856 480.122 630.309 480.307 630.781 480.307H633.008V489H641.992V480.307H644.219C644.691 480.307 645.144 480.122 645.478 479.794C645.812 479.465 646 479.019 646 478.554V472.752C646 472.288 645.812 471.842 645.478 471.513C645.144 471.185 644.691 471 644.219 471V471Z" fill="#E6E6E6"/>
<path d="M656.605 523.865C648.665 512.116 644.605 498.129 645.009 483.905C645.016 483.577 644.911 483.256 644.711 482.997C644.511 482.739 644.228 482.558 643.911 482.486V480H630.219V482.452H630.03C629.845 482.452 629.663 482.489 629.492 482.561C629.322 482.632 629.167 482.737 629.037 482.869C628.907 483.001 628.803 483.158 628.733 483.331C628.663 483.503 628.627 483.688 628.627 483.874C628.627 483.909 628.628 483.943 628.631 483.978C629.709 499.183 626.067 512.818 617.703 524.884C617.221 525.578 616.976 526.41 617.002 527.257L618.499 574.087C618.535 575.132 618.969 576.122 619.709 576.851C620.45 577.58 621.441 577.992 622.474 578H653.445C654.491 577.991 655.491 577.57 656.234 576.827C656.977 576.083 657.404 575.075 657.423 574.018L658 528.55C658.017 526.881 657.53 525.247 656.605 523.865V523.865Z" fill="#525050"/>
<path opacity="0.2" d="M641 473C641 474.061 640.631 475.078 639.975 475.828C639.318 476.579 638.428 477 637.5 477C636.572 477 635.682 476.579 635.025 475.828C634.369 475.078 634 474.061 634 473" fill="black"/>
<path d="M681.355 542.797H652.164C651.732 542.797 651.305 542.891 650.912 543.071C650.519 543.252 650.17 543.515 649.889 543.843C649.608 544.171 649.401 544.556 649.282 544.971C649.163 545.387 649.136 545.823 649.201 546.25L653.613 574.923H678.943L684.301 546.347C684.382 545.914 684.367 545.469 684.256 545.042C684.146 544.616 683.943 544.219 683.661 543.881C683.38 543.542 683.028 543.269 682.629 543.082C682.231 542.895 681.796 542.797 681.355 542.797V542.797Z" fill="white"/>
<path d="M607 579H529C534.453 549.623 533.199 514.149 529 476H607C602.913 514.15 601.692 549.623 607 579Z" fill="#525050"/>
<path d="M568.5 543C578.717 543 587 534.717 587 524.5C587 514.283 578.717 506 568.5 506C558.283 506 550 514.283 550 524.5C550 534.717 558.283 543 568.5 543Z" fill="white"/>
<path d="M262.243 218.466L281.03 216.758L292.986 187.724L271.637 175.768L262.243 218.466Z" fill="#FFB8B8"/>
<path d="M423.299 310.903C423.875 309.474 424.101 307.93 423.959 306.398C423.817 304.866 423.312 303.389 422.484 302.089C421.656 300.79 420.53 299.704 419.198 298.923C417.866 298.142 416.367 297.686 414.824 297.595L387.956 296L384 309.093L411.659 316.653C413.97 317.285 416.434 317.048 418.581 315.987C420.728 314.927 422.407 313.117 423.299 310.903V310.903Z" fill="#FFB8B8"/>
<path d="M394 317L393.703 292.073L333.727 282.457L287.523 229.21C285.119 226.439 281.797 224.638 278.173 224.14C274.548 223.642 270.867 224.481 267.811 226.501C265.961 227.724 264.401 229.341 263.241 231.237C262.081 233.132 261.349 235.261 261.098 237.472C260.846 239.683 261.081 241.923 261.786 244.033C262.491 246.142 263.648 248.071 265.177 249.682L303.295 296.818L394 317Z" fill="#575A89"/>
<path d="M250 598H265.882L305.277 419.499L346.088 474.642L369.912 594.021H385L381.824 465.888L328.618 329H276.206C261.883 354.978 250.647 381.756 263.5 409.382L250 598Z" fill="#2F2E41"/>
<path d="M359.203 609.742C359.014 610.346 358.956 610.984 359.033 611.612C359.11 612.241 359.32 612.846 359.648 613.387C359.977 613.928 360.418 614.392 360.94 614.75C361.462 615.108 362.055 615.35 362.679 615.46L404.472 622.877C406.123 623.179 407.828 622.867 409.265 621.998C410.702 621.13 411.772 619.766 412.273 618.164V618.164C412.76 616.633 412.692 614.979 412.08 613.493C411.469 612.007 410.354 610.784 408.93 610.038C399.741 605.32 391.832 598.444 385.882 590C381.289 594.277 376.155 593.875 370.703 590.723L364.921 591.446L359.203 609.742Z" fill="#2F2E41"/>
<path d="M241.427 612.742C241.238 613.346 241.18 613.984 241.257 614.612C241.334 615.241 241.544 615.846 241.872 616.387C242.201 616.928 242.642 617.392 243.164 617.75C243.687 618.108 244.279 618.35 244.903 618.46L286.696 625.877C288.347 626.179 290.052 625.867 291.489 624.998C292.926 624.13 293.996 622.766 294.497 621.164C294.984 619.633 294.916 617.979 294.305 616.493C293.693 615.007 292.578 613.784 291.154 613.038C281.965 608.32 274.056 601.444 268.106 593C263.513 597.277 258.379 596.875 252.927 593.723L247.145 594.446L241.427 612.742Z" fill="#2F2E41"/>
<path d="M293.413 198.398C306.618 198.398 317.324 187.693 317.324 174.487C317.324 161.281 306.618 150.576 293.413 150.576C280.207 150.576 269.502 161.281 269.502 174.487C269.502 187.693 280.207 198.398 293.413 198.398Z" fill="#FFB8B8"/>
<path d="M272.064 323.931L334.403 322.223L316.095 264.604C327.473 246.364 316.022 228.144 299.817 209.927L287.008 201.387L266.513 199.679C257.639 209.174 252.784 221.735 252.964 234.73C253.369 262.556 258.296 292.848 272.064 323.931Z" fill="#575A89"/>
<path d="M405.161 371.099C406.247 369.989 407.059 368.631 407.531 367.137C408.003 365.643 408.121 364.056 407.875 362.506C407.63 360.956 407.028 359.488 406.119 358.223C405.21 356.958 404.02 355.932 402.647 355.229L378.749 343L370 353.702L392.279 371.844C394.141 373.359 396.483 374.121 398.859 373.984C401.235 373.847 403.478 372.82 405.161 371.099V371.099Z" fill="#FFB8B8"/>
<path d="M376.47 365L386 342.021L334.385 309.551L312.651 242.495C311.52 239.006 309.16 236.045 306.009 234.159C302.857 232.273 299.127 231.591 295.51 232.238V232.238C293.32 232.631 291.243 233.498 289.425 234.779C287.608 236.061 286.095 237.724 284.994 239.653C283.892 241.582 283.228 243.729 283.049 245.942C282.87 248.154 283.181 250.38 283.959 252.46L300.627 310.722L376.47 365Z" fill="#575A89"/>
<path d="M254.13 165.093C254.13 174.397 260.172 188.806 267.794 194.982C272.922 199.138 279.698 198.963 282.311 193.274C284.991 187.439 294.231 173.722 310.492 165.093C332.17 153.591 302.804 133.912 282.311 136.913C266.911 139.167 254.13 149.53 254.13 165.093Z" fill="#2F2E41"/>
<path d="M268.648 152.284C278.08 152.284 285.727 144.637 285.727 135.205C285.727 125.772 278.08 118.125 268.648 118.125C259.215 118.125 251.568 125.772 251.568 135.205C251.568 144.637 259.215 152.284 268.648 152.284Z" fill="#2F2E41"/>
<path d="M288.289 129.227C288.287 124.921 286.658 120.775 283.728 117.62C280.799 114.464 276.784 112.533 272.491 112.212C272.915 112.181 273.339 112.148 273.771 112.148C278.301 112.148 282.645 113.947 285.848 117.15C289.051 120.353 290.851 124.697 290.851 129.227C290.851 133.757 289.051 138.101 285.848 141.304C282.645 144.507 278.301 146.306 273.771 146.306C273.339 146.306 272.915 146.273 272.491 146.242C276.784 145.921 280.799 143.99 283.728 140.834C286.658 137.679 288.287 133.533 288.289 129.227Z" fill="#2F2E41"/>
<path d="M293.84 183.027C295.962 183.027 297.682 180.733 297.682 177.903C297.682 175.073 295.962 172.779 293.84 172.779C291.717 172.779 289.997 175.073 289.997 177.903C289.997 180.733 291.717 183.027 293.84 183.027Z" fill="#FFB8B8"/>
<path d="M741 569H494.677L442.516 321.122H398V310H451.484L503.646 557.877H741V569Z" fill="#3F3D56"/>
<path d="M578.841 641.468C592.975 641.468 604.432 630.01 604.432 615.877C604.432 601.743 592.975 590.285 578.841 590.285C564.707 590.285 553.25 601.743 553.25 615.877C553.25 630.01 564.707 641.468 578.841 641.468Z" fill="#3F3D56"/>
<path d="M769.923 641.468C784.057 641.468 795.515 630.01 795.515 615.877C795.515 601.743 784.057 590.285 769.923 590.285C755.79 590.285 744.332 601.743 744.332 615.877C744.332 630.01 755.79 641.468 769.923 641.468Z" fill="#3F3D56"/>
<path d="M762.954 581H523.287L481 370H802.637C804.278 370 805.9 370.359 807.391 371.053C808.881 371.746 810.206 372.757 811.272 374.017C812.339 375.276 813.123 376.754 813.57 378.348C814.017 379.942 814.117 381.616 813.863 383.253L774.177 571.308C773.768 574.014 772.409 576.481 770.349 578.26C768.289 580.039 765.664 581.011 762.954 581V581ZM525.889 577.808H762.954C764.91 577.816 766.804 577.114 768.291 575.83C769.778 574.546 770.758 572.766 771.053 570.813L810.738 382.757C810.922 381.576 810.851 380.368 810.528 379.217C810.206 378.066 809.64 376.999 808.87 376.09C808.1 375.181 807.144 374.452 806.068 373.951C804.992 373.451 803.822 373.192 802.637 373.192H484.837L525.889 577.808Z" fill="#3F3D56"/>
<path d="M569.862 580L542 372.518L545.138 372L573 579.482L569.862 580Z" fill="#3F3D56"/>
<path d="M724.121 579L721 578.49L747.879 372L751 372.51L724.121 579Z" fill="#3F3D56"/>
<path d="M650 372H647V580H650V372Z" fill="#3F3D56"/>
<path d="M496.906 427.701L496.898 430.883L803.152 431.629L803.16 428.447L496.906 427.701Z" fill="#3F3D56"/>
<path d="M821 528.494L530.829 530.478L530.853 533.89L821.024 531.906L821 528.494Z" fill="#3F3D56"/>
<path d="M403 323C412.389 323 420 318.747 420 313.5C420 308.253 412.389 304 403 304C393.611 304 386 308.253 386 313.5C386 318.747 393.611 323 403 323Z" fill="#3F3D56"/>
</g>
<defs>
<clipPath id="clip0">
<rect width="888" height="741.048" fill="white"/>
</clipPath>
</defs>
</svg>
