<svg width="602" height="630" viewBox="0 0 602 630" fill="none" xmlns="http://www.w3.org/2000/svg">
<rect width="602" height="630" fill="#E5E5E5"/>
<path d="M402.412 63.1895L401.414 64.1849L469.904 126.094L470.902 125.098L402.412 63.1895Z" fill="#E6E6E6"/>
<path d="M471.451 118L469.954 118.091L470.406 125.48L463.016 125.391L463 126.893L472 127L471.451 118Z" fill="#E6E6E6"/>
<path d="M409 62.1078L408.986 63.6096L402.417 63.5207L402.818 70.9093L401.486 71L401 62L409 62.1078Z" fill="#E6E6E6"/>
<path d="M436.5 102C440.642 102 444 98.6421 444 94.5C444 90.3579 440.642 87 436.5 87C432.358 87 429 90.3579 429 94.5C429 98.6421 432.358 102 436.5 102Z" fill="#E6E6E6"/>
<path d="M198.035 63.1895L129.545 125.098L130.543 126.094L199.033 64.185L198.035 63.1895Z" fill="#E6E6E6"/>
<path d="M129 127L138 126.893L137.983 125.391L130.594 125.48L131.046 118.091L129.549 118L129 127Z" fill="#E6E6E6"/>
<path d="M200 62L199.452 71L197.955 70.9093L198.406 63.5207L191.016 63.6096L191 62.1078L200 62Z" fill="#E6E6E6"/>
<path d="M164 102C168.418 102 172 98.6421 172 94.5C172 90.3579 168.418 87 164 87C159.582 87 156 90.3579 156 94.5C156 98.6421 159.582 102 164 102Z" fill="#E6E6E6"/>
<path d="M359.495 157H239.505C237.781 156.998 236.127 156.345 234.908 155.183C233.688 154.021 233.002 152.446 233 150.803V6.19736C233.002 4.55429 233.688 2.97907 234.908 1.81724C236.127 0.655412 237.781 0.00187112 239.505 0H359.495C361.219 0.00187112 362.873 0.655412 364.092 1.81724C365.312 2.97907 365.998 4.55429 366 6.19736V150.803C365.998 152.446 365.312 154.021 364.092 155.183C362.873 156.345 361.219 156.998 359.495 157ZM239.505 1.3772C238.164 1.37863 236.878 1.88693 235.929 2.79058C234.981 3.69422 234.447 4.91941 234.446 6.19736V150.803C234.447 152.081 234.981 153.306 235.929 154.209C236.878 155.113 238.164 155.621 239.505 155.623H359.495C360.836 155.621 362.122 155.113 363.071 154.209C364.019 153.306 364.553 152.081 364.554 150.803V6.19736C364.553 4.91941 364.019 3.69422 363.071 2.79058C362.122 1.88693 360.836 1.37863 359.495 1.3772H239.505Z" fill="#3F3D56"/>
<path d="M289.64 69H262.36C261.469 68.9991 260.615 68.6805 259.985 68.1139C259.355 67.5474 259.001 66.7793 259 65.9781V37.0219C259.001 36.2207 259.355 35.4526 259.985 34.8861C260.615 34.3195 261.469 34.0009 262.36 34H289.64C290.531 34.0009 291.385 34.3195 292.015 34.8861C292.645 35.4526 292.999 36.2207 293 37.0219V65.9781C292.999 66.7793 292.645 67.5474 292.015 68.1139C291.385 68.6805 290.531 68.9991 289.64 69Z" fill="#525050"/>
<path d="M340.739 83H314.261C313.396 82.9991 312.567 82.6804 311.956 82.1139C311.345 81.5474 311.001 80.7793 311 79.9781V51.0219C311.001 50.2207 311.345 49.4526 311.956 48.8861C312.567 48.3195 313.396 48.0009 314.261 48H340.739C341.604 48.0009 342.433 48.3195 343.044 48.8861C343.655 49.4526 343.999 50.2207 344 51.0219V79.9781C343.999 80.7793 343.655 81.5474 343.044 82.1139C342.433 82.6804 341.604 82.9991 340.739 83V83Z" fill="#CCCCCC"/>
<path d="M298.937 125H274.063C273.251 124.999 272.472 124.671 271.898 124.089C271.324 123.506 271.001 122.716 271 121.892V92.1082C271.001 91.2842 271.324 90.4941 271.898 89.9114C272.472 89.3287 273.251 89.0009 274.063 89H298.937C299.749 89.0009 300.528 89.3287 301.102 89.9114C301.676 90.4941 301.999 91.2842 302 92.1082V121.892C301.999 122.716 301.676 123.506 301.102 124.089C300.528 124.671 299.749 124.999 298.937 125V125Z" fill="#FF6584"/>
<path d="M553.495 305H433.505C431.781 304.998 430.127 304.345 428.908 303.183C427.688 302.021 427.002 300.446 427 298.803V154.197C427.002 152.554 427.688 150.979 428.908 149.817C430.127 148.655 431.781 148.002 433.505 148H553.495C555.219 148.002 556.873 148.655 558.092 149.817C559.312 150.979 559.998 152.554 560 154.197V298.803C559.998 300.446 559.312 302.021 558.092 303.183C556.873 304.345 555.219 304.998 553.495 305ZM433.505 149.377C432.164 149.379 430.878 149.887 429.929 150.791C428.981 151.694 428.447 152.919 428.446 154.197V298.803C428.447 300.081 428.981 301.306 429.929 302.209C430.878 303.113 432.164 303.621 433.505 303.623H553.495C554.836 303.621 556.122 303.113 557.071 302.209C558.019 301.306 558.553 300.081 558.554 298.803V154.197C558.553 152.919 558.019 151.694 557.071 150.791C556.122 149.887 554.836 149.379 553.495 149.377H433.505Z" fill="#3F3D56"/>
<path d="M527.8 219H482.2C481.351 219 480.537 218.684 479.937 218.121C479.337 217.559 479 216.796 479 216C479 215.204 479.337 214.441 479.937 213.879C480.537 213.316 481.351 213 482.2 213H527.8C528.649 213 529.463 213.316 530.063 213.879C530.663 214.441 531 215.204 531 216C531 216.796 530.663 217.559 530.063 218.121C529.463 218.684 528.649 219 527.8 219Z" fill="#525050"/>
<path d="M535.053 206H451.947C451.56 206.001 451.177 205.936 450.82 205.811C450.462 205.686 450.137 205.502 449.863 205.269C449.59 205.037 449.373 204.761 449.224 204.458C449.076 204.154 449 203.829 449 203.5C449 203.171 449.076 202.846 449.224 202.542C449.373 202.239 449.59 201.963 449.863 201.731C450.137 201.498 450.462 201.314 450.82 201.189C451.177 201.064 451.56 200.999 451.947 201H535.053C535.44 200.999 535.823 201.064 536.18 201.189C536.538 201.314 536.863 201.498 537.137 201.731C537.41 201.963 537.627 202.239 537.776 202.542C537.924 202.846 538 203.171 538 203.5C538 203.829 537.924 204.154 537.776 204.458C537.627 204.761 537.41 205.037 537.137 205.269C536.863 205.502 536.538 205.686 536.18 205.811C535.823 205.936 535.44 206.001 535.053 206V206Z" fill="#CCCCCC"/>
<path d="M535.053 221H451.947C451.56 221.001 451.177 220.924 450.82 220.773C450.462 220.623 450.137 220.402 449.863 220.123C449.59 219.845 449.373 219.514 449.224 219.149C449.076 218.785 449 218.394 449 218C449 217.606 449.076 217.215 449.224 216.851C449.373 216.486 449.59 216.155 449.863 215.877C450.137 215.598 450.462 215.377 450.82 215.227C451.177 215.076 451.56 214.999 451.947 215H535.053C535.44 214.999 535.823 215.076 536.18 215.227C536.538 215.377 536.863 215.598 537.137 215.877C537.41 216.155 537.627 216.486 537.776 216.851C537.924 217.215 538 217.606 538 218C538 218.394 537.924 218.785 537.776 219.149C537.627 219.514 537.41 219.845 537.137 220.123C536.863 220.402 536.538 220.623 536.18 220.773C535.823 220.924 535.44 221.001 535.053 221V221Z" fill="#CCCCCC"/>
<path d="M535.053 235H451.947C451.56 235.001 451.177 234.924 450.82 234.773C450.462 234.623 450.137 234.402 449.863 234.123C449.59 233.845 449.373 233.514 449.224 233.149C449.076 232.785 449 232.394 449 232C449 231.606 449.076 231.215 449.224 230.851C449.373 230.486 449.59 230.155 449.863 229.877C450.137 229.598 450.462 229.377 450.82 229.227C451.177 229.076 451.56 228.999 451.947 229H535.053C535.44 228.999 535.823 229.076 536.18 229.227C536.538 229.377 536.863 229.598 537.137 229.877C537.41 230.155 537.627 230.486 537.776 230.851C537.924 231.215 538 231.606 538 232C538 232.394 537.924 232.785 537.776 233.149C537.627 233.514 537.41 233.845 537.137 234.123C536.863 234.402 536.538 234.623 536.18 234.773C535.823 234.924 535.44 235.001 535.053 235V235Z" fill="#CCCCCC"/>
<path d="M535.053 250H451.947C451.56 250.001 451.177 249.924 450.82 249.773C450.462 249.623 450.137 249.402 449.863 249.123C449.59 248.845 449.373 248.514 449.224 248.149C449.076 247.785 449 247.394 449 247C449 246.606 449.076 246.215 449.224 245.851C449.373 245.486 449.59 245.156 449.863 244.877C450.137 244.598 450.462 244.377 450.82 244.227C451.177 244.076 451.56 243.999 451.947 244H535.053C535.44 243.999 535.823 244.076 536.18 244.227C536.538 244.377 536.863 244.598 537.137 244.877C537.41 245.156 537.627 245.486 537.776 245.851C537.924 246.215 538 246.606 538 247C538 247.394 537.924 247.785 537.776 248.149C537.627 248.514 537.41 248.845 537.137 249.123C536.863 249.402 536.538 249.623 536.18 249.773C535.823 249.924 535.44 250.001 535.053 250V250Z" fill="#CCCCCC"/>
<path d="M535.053 264H451.947C451.56 264.001 451.177 263.936 450.82 263.811C450.462 263.686 450.137 263.501 449.863 263.269C449.59 263.037 449.373 262.761 449.224 262.458C449.076 262.154 449 261.829 449 261.5C449 261.171 449.076 260.846 449.224 260.542C449.373 260.239 449.59 259.963 449.863 259.731C450.137 259.499 450.462 259.314 450.82 259.189C451.177 259.064 451.56 258.999 451.947 259H535.053C535.44 258.999 535.823 259.064 536.18 259.189C536.538 259.314 536.863 259.499 537.137 259.731C537.41 259.963 537.627 260.239 537.776 260.542C537.924 260.846 538 261.171 538 261.5C538 261.829 537.924 262.154 537.776 262.458C537.627 262.761 537.41 263.037 537.137 263.269C536.863 263.501 536.538 263.686 536.18 263.811C535.823 263.936 535.44 264.001 535.053 264V264Z" fill="#CCCCCC"/>
<path d="M535.053 279H451.947C451.56 279.001 451.177 278.924 450.82 278.773C450.462 278.623 450.137 278.402 449.863 278.123C449.59 277.845 449.373 277.514 449.224 277.149C449.076 276.785 449 276.394 449 276C449 275.606 449.076 275.215 449.224 274.851C449.373 274.486 449.59 274.155 449.863 273.877C450.137 273.598 450.462 273.377 450.82 273.227C451.177 273.076 451.56 272.999 451.947 273H535.053C535.44 272.999 535.823 273.076 536.18 273.227C536.538 273.377 536.863 273.598 537.137 273.877C537.41 274.155 537.627 274.486 537.776 274.851C537.924 275.215 538 275.606 538 276C538 276.394 537.924 276.785 537.776 277.149C537.627 277.514 537.41 277.845 537.137 278.123C536.863 278.402 536.538 278.623 536.18 278.773C535.823 278.924 535.44 279.001 535.053 279V279Z" fill="#CCCCCC"/>
<path d="M165.495 305H45.5054C43.7807 304.998 42.1271 304.345 40.9076 303.183C39.688 302.021 39.002 300.446 39 298.803V154.197C39.002 152.554 39.688 150.979 40.9076 149.817C42.1271 148.655 43.7807 148.002 45.5054 148H165.495C167.219 148.002 168.873 148.655 170.092 149.817C171.312 150.979 171.998 152.554 172 154.197V298.803C171.998 300.446 171.312 302.021 170.092 303.183C168.873 304.345 167.219 304.998 165.495 305ZM45.5054 149.377C44.164 149.379 42.8779 149.887 41.9293 150.791C40.9807 151.694 40.4471 152.919 40.4456 154.197V298.803C40.4471 300.081 40.9807 301.306 41.9293 302.209C42.8779 303.113 44.164 303.621 45.5054 303.623H165.495C166.836 303.621 168.122 303.113 169.071 302.209C170.019 301.306 170.553 300.081 170.554 298.803V154.197C170.553 152.919 170.019 151.694 169.071 150.791C168.122 149.887 166.836 149.379 165.495 149.377H45.5054Z" fill="#3F3D56"/>
<path d="M147.103 183H110.897C110.128 183 109.392 182.684 108.848 182.121C108.305 181.559 108 180.796 108 180C108 179.204 108.305 178.441 108.848 177.879C109.392 177.316 110.128 177 110.897 177H147.103C147.872 177 148.608 177.316 149.152 177.879C149.695 178.441 150 179.204 150 180C150 180.796 149.695 181.559 149.152 182.121C148.608 182.684 147.872 183 147.103 183V183Z" fill="#3F3D56"/>
<path d="M147.103 197H110.897C110.128 197 109.392 196.737 108.848 196.268C108.305 195.799 108 195.163 108 194.5C108 193.837 108.305 193.201 108.848 192.732C109.392 192.263 110.128 192 110.897 192H147.103C147.872 192 148.608 192.263 149.152 192.732C149.695 193.201 150 193.837 150 194.5C150 195.163 149.695 195.799 149.152 196.268C148.608 196.737 147.872 197 147.103 197V197Z" fill="#3F3D56"/>
<path d="M91.7391 205H65.2609C64.3964 204.999 63.5675 204.671 62.9562 204.089C62.3448 203.506 62.001 202.716 62 201.892V172.108C62.001 171.284 62.3448 170.494 62.9562 169.911C63.5675 169.329 64.3963 169.001 65.2609 169H91.7391C92.6037 169.001 93.4325 169.329 94.0439 169.911C94.6552 170.494 94.999 171.284 95 172.108V201.892C94.999 202.716 94.6552 203.506 94.0439 204.089C93.4325 204.671 92.6037 204.999 91.7391 205V205Z" fill="#525050"/>
<path d="M147.053 226H63.9469C63.5601 226.001 63.1771 225.936 62.8195 225.811C62.462 225.686 62.1371 225.501 61.8634 225.269C61.5897 225.037 61.3726 224.761 61.2244 224.458C61.0763 224.154 61 223.829 61 223.5C61 223.171 61.0763 222.846 61.2244 222.542C61.3726 222.239 61.5897 221.963 61.8634 221.731C62.1371 221.499 62.462 221.314 62.8195 221.189C63.1771 221.064 63.5601 220.999 63.9469 221H147.053C147.44 220.999 147.823 221.064 148.18 221.189C148.538 221.314 148.863 221.499 149.137 221.731C149.41 221.963 149.627 222.239 149.776 222.542C149.924 222.846 150 223.171 150 223.5C150 223.829 149.924 224.154 149.776 224.458C149.627 224.761 149.41 225.037 149.137 225.269C148.863 225.501 148.538 225.686 148.18 225.811C147.823 225.936 147.44 226.001 147.053 226V226Z" fill="#CCCCCC"/>
<path d="M147.053 241H63.9469C63.5601 241.001 63.1771 240.924 62.8195 240.773C62.462 240.623 62.1371 240.402 61.8634 240.123C61.5897 239.845 61.3726 239.514 61.2244 239.149C61.0763 238.785 61 238.394 61 238C61 237.606 61.0763 237.215 61.2244 236.851C61.3726 236.486 61.5897 236.155 61.8634 235.877C62.1371 235.598 62.462 235.377 62.8195 235.227C63.1771 235.076 63.5601 234.999 63.9469 235H147.053C147.44 234.999 147.823 235.076 148.18 235.227C148.538 235.377 148.863 235.598 149.137 235.877C149.41 236.155 149.627 236.486 149.776 236.851C149.924 237.215 150 237.606 150 238C150 238.394 149.924 238.785 149.776 239.149C149.627 239.514 149.41 239.845 149.137 240.123C148.863 240.402 148.538 240.623 148.18 240.773C147.823 240.924 147.44 241.001 147.053 241V241Z" fill="#CCCCCC"/>
<path d="M147.053 255H63.9469C63.5601 255.001 63.1771 254.936 62.8195 254.811C62.462 254.686 62.1371 254.502 61.8634 254.269C61.5897 254.037 61.3726 253.761 61.2244 253.458C61.0763 253.154 61 252.829 61 252.5C61 252.171 61.0763 251.846 61.2244 251.542C61.3726 251.239 61.5897 250.963 61.8634 250.731C62.1371 250.499 62.462 250.314 62.8195 250.189C63.1771 250.064 63.5601 249.999 63.9469 250H147.053C147.44 249.999 147.823 250.064 148.18 250.189C148.538 250.314 148.863 250.499 149.137 250.731C149.41 250.963 149.627 251.239 149.776 251.542C149.924 251.846 150 252.171 150 252.5C150 252.829 149.924 253.154 149.776 253.458C149.627 253.761 149.41 254.037 149.137 254.269C148.863 254.502 148.538 254.686 148.18 254.811C147.823 254.936 147.44 255.001 147.053 255V255Z" fill="#CCCCCC"/>
<path d="M147.053 270H63.9469C63.5601 270.001 63.1771 269.924 62.8195 269.773C62.462 269.623 62.1371 269.402 61.8634 269.123C61.5897 268.845 61.3726 268.514 61.2244 268.149C61.0763 267.785 61 267.394 61 267C61 266.606 61.0763 266.215 61.2244 265.851C61.3726 265.486 61.5897 265.155 61.8634 264.877C62.1371 264.598 62.462 264.377 62.8195 264.227C63.1771 264.076 63.5601 263.999 63.9469 264H147.053C147.44 263.999 147.823 264.076 148.18 264.227C148.538 264.377 148.863 264.598 149.137 264.877C149.41 265.155 149.627 265.486 149.776 265.851C149.924 266.215 150 266.606 150 267C150 267.394 149.924 267.785 149.776 268.149C149.627 268.514 149.41 268.845 149.137 269.123C148.863 269.402 148.538 269.623 148.18 269.773C147.823 269.924 147.44 270.001 147.053 270V270Z" fill="#CCCCCC"/>
<path d="M147.053 284H63.9469C63.5601 284.001 63.1771 283.936 62.8195 283.811C62.462 283.686 62.1371 283.502 61.8634 283.269C61.5897 283.037 61.3726 282.761 61.2244 282.458C61.0763 282.154 61 281.829 61 281.5C61 281.171 61.0763 280.846 61.2244 280.542C61.3726 280.239 61.5897 279.963 61.8634 279.731C62.1371 279.498 62.462 279.314 62.8195 279.189C63.1771 279.064 63.5601 278.999 63.9469 279H147.053C147.44 278.999 147.823 279.064 148.18 279.189C148.538 279.314 148.863 279.498 149.137 279.731C149.41 279.963 149.627 280.239 149.776 280.542C149.924 280.846 150 281.171 150 281.5C150 281.829 149.924 282.154 149.776 282.458C149.627 282.761 149.41 283.037 149.137 283.269C148.863 283.502 148.538 283.686 148.18 283.811C147.823 283.936 147.44 284.001 147.053 284V284Z" fill="#CCCCCC"/>
<path d="M211 387.978V359.022C211.001 358.221 211.355 357.453 211.985 356.886C212.615 356.32 213.469 356.001 214.36 356H241.64C242.531 356.001 243.385 356.32 244.015 356.886C244.645 357.453 244.999 358.221 245 359.022V387.978C244.999 388.779 244.645 389.547 244.015 390.114C243.385 390.68 242.531 390.999 241.64 391H214.36C213.469 390.999 212.615 390.68 211.985 390.114C211.355 389.547 211.001 388.779 211 387.978V387.978Z" fill="#E6E6E6"/>
<path d="M220 378.892V349.108C220.001 348.284 220.345 347.494 220.956 346.911C221.567 346.329 222.396 346.001 223.261 346H249.739C250.604 346.001 251.433 346.329 252.044 346.911C252.655 347.494 252.999 348.284 253 349.108V378.892C252.999 379.716 252.655 380.506 252.044 381.089C251.433 381.671 250.604 381.999 249.739 382H223.261C222.396 381.999 221.567 381.671 220.956 381.089C220.345 380.506 220.001 379.716 220 378.892V378.892Z" fill="#525050"/>
<path d="M339.119 368.971C338.042 368.427 337.114 367.683 336.402 366.791C335.689 365.899 335.209 364.881 334.995 363.809C334.781 362.738 334.838 361.638 335.162 360.587C335.486 359.537 336.069 358.561 336.871 357.729L328 301L346.479 301.794L349.38 357.127C350.889 358.398 351.811 360.109 351.974 361.935C352.137 363.762 351.528 365.577 350.263 367.037C348.998 368.497 347.165 369.5 345.111 369.857C343.057 370.213 340.925 369.898 339.119 368.972V368.971Z" fill="#A0616A"/>
<path d="M349.215 302.317C348.858 302.711 348.401 303.014 347.886 303.198L332.235 308.797C331.449 309.079 330.577 309.067 329.801 308.764C329.024 308.462 328.4 307.891 328.058 307.171L314.194 277.967C312.863 275.258 312.636 272.186 313.557 269.331C314.238 267.293 315.492 265.466 317.188 264.04C318.885 262.615 320.96 261.645 323.195 261.232C324.914 260.901 326.689 260.924 328.397 261.301C330.444 261.729 332.345 262.628 333.928 263.918C335.511 265.208 336.725 266.847 337.462 268.687L349.789 299.228C349.996 299.744 350.052 300.303 349.951 300.846C349.85 301.389 349.596 301.897 349.215 302.317V302.317Z" fill="#CCCCCC"/>
<path d="M268.998 508H257.991L254 469L269 469.184L268.998 508Z" fill="#A0616A"/>
<path d="M258.523 506H280V517H245C245 515.555 245.35 514.125 246.029 512.79C246.709 511.456 247.705 510.243 248.961 509.222C250.216 508.2 251.707 507.39 253.348 506.837C254.988 506.285 256.747 506 258.523 506V506Z" fill="#2F2E41"/>
<path d="M317.998 508H306.479L301 469L318 469.001L317.998 508Z" fill="#A0616A"/>
<path d="M310.136 506H331V517H297C297 515.555 297.34 514.125 298 512.79C298.66 511.456 299.628 510.243 300.848 509.222C302.067 508.2 303.516 507.39 305.109 506.837C306.703 506.285 308.411 506 310.136 506V506Z" fill="#2F2E41"/>
<path d="M319.246 493.99L302.338 492.814C301.377 492.746 300.475 492.351 299.802 491.702C299.129 491.054 298.731 490.197 298.683 489.292L294.913 416.123C294.877 415.421 294.569 414.755 294.048 414.251C293.526 413.747 292.826 413.439 292.08 413.385C291.333 413.331 290.592 413.534 289.994 413.958C289.396 414.381 288.983 414.994 288.833 415.683L273.106 487.761C272.911 488.648 272.378 489.438 271.607 489.982C270.837 490.525 269.881 490.786 268.92 490.715L253.636 489.567C253.112 489.527 252.602 489.39 252.136 489.164C251.669 488.937 251.255 488.625 250.918 488.246C250.581 487.868 250.329 487.43 250.174 486.958C250.02 486.486 249.967 485.99 250.02 485.499L264.198 352.341C264.254 351.821 264.426 351.317 264.703 350.864C264.98 350.41 265.356 350.017 265.807 349.709C266.257 349.401 266.772 349.187 267.317 349.079C267.862 348.972 268.425 348.974 268.97 349.085L322.888 360.092C323.781 360.277 324.579 360.745 325.146 361.419C325.713 362.092 326.015 362.929 325.999 363.788L323.488 490.358C323.468 491.329 323.045 492.253 322.308 492.934C321.571 493.615 320.58 493.997 319.547 494C319.447 494 319.346 493.996 319.246 493.99Z" fill="#2F2E41"/>
<path d="M304.5 242C316.374 242 326 232.822 326 221.5C326 210.178 316.374 201 304.5 201C292.626 201 283 210.178 283 221.5C283 232.822 292.626 242 304.5 242Z" fill="#A0616A"/>
<path d="M271.379 363.402C269.315 361.653 267.677 359.503 266.576 357.098C265.476 354.693 264.94 352.092 265.005 349.473C265.005 320.319 291.705 255.184 292.542 253.151C292.624 252.662 293.328 252.45 297.024 250.091C300.723 247.729 306.055 247.366 312.875 249.012C313.568 249.18 314.199 249.524 314.7 250.007C315.2 250.491 315.551 251.094 315.714 251.753L316.983 253.485C317.093 253.925 317.311 254.333 317.619 254.678C317.927 255.024 318.316 255.296 318.756 255.473C324.255 257.662 341.735 267.76 335.779 305.762C330.246 341.062 328 361.823 327.292 369.111C327.208 369.976 326.807 370.785 326.157 371.399C325.506 372.012 324.649 372.391 323.734 372.468C321.038 372.697 316.41 373 310.898 373C298.122 373 280.598 371.371 271.379 363.402Z" fill="#CCCCCC"/>
<path d="M245.803 352.709C245.297 351.718 245.023 350.634 245.001 349.531C244.98 348.428 245.21 347.334 245.677 346.326C246.143 345.318 246.834 344.42 247.702 343.696C248.569 342.972 249.591 342.439 250.696 342.135L277.284 290L291 299.8L260.652 347.81C261.061 349.625 260.762 351.521 259.812 353.139C258.861 354.757 257.325 355.984 255.495 356.588C253.665 357.192 251.667 357.13 249.881 356.415C248.094 355.701 246.643 354.382 245.803 352.709L245.803 352.709Z" fill="#A0616A"/>
<path d="M292.134 302.883C291.639 303.025 291.116 303.038 290.615 302.921L275.38 299.377C274.615 299.199 273.946 298.732 273.512 298.071C273.078 297.411 272.911 296.607 273.046 295.826L278.504 264.169C278.976 261.209 280.505 258.526 282.802 256.626C284.46 255.283 286.447 254.416 288.552 254.116C290.657 253.817 292.803 254.097 294.764 254.926C296.28 255.552 297.643 256.504 298.757 257.715C300.106 259.147 301.081 260.896 301.592 262.803C302.103 264.711 302.135 266.717 301.684 268.64L294.293 300.606C294.167 301.145 293.9 301.641 293.521 302.042C293.141 302.442 292.662 302.733 292.134 302.883Z" fill="#CCCCCC"/>
<path d="M298.845 240.453C297.838 239.453 297.095 238.23 296.678 236.889C296.262 235.549 296.185 234.13 296.454 232.754C297.175 229.079 297.598 226.675 297.679 225.801C297.953 222.808 294.848 220.386 291.775 220.001C291.656 219.986 291.557 219.976 291.473 219.969C291.552 220.044 291.636 220.12 291.71 220.188C292.293 220.722 293.02 221.387 292.847 222.073C292.743 222.486 292.356 222.779 291.662 222.968C286.857 224.278 283.156 223.075 280.016 219.181C279.133 218.075 278.526 216.783 278.243 215.409C277.118 210.033 280.116 205.449 282.829 202.551C285.066 200.162 288.693 197.261 293.266 197.013C296.823 196.819 301.052 198.813 302.318 202.406C302.915 201.544 303.71 200.829 304.639 200.318C305.569 199.808 306.608 199.515 307.675 199.464C310.103 199.413 312.492 200.06 314.545 201.325C324.573 206.921 328.883 220.251 323.957 230.435C320.857 236.84 314.143 241.609 306.433 242.88C305.95 242.96 305.461 243 304.972 243C303.827 242.998 302.695 242.772 301.642 242.334C300.589 241.897 299.638 241.257 298.845 240.453V240.453Z" fill="#2F2E41"/>
</svg>
