<?xml version="1.0" encoding="UTF-8" standalone="no"?>
<svg
   xmlns:dc="http://purl.org/dc/elements/1.1/"
   xmlns:cc="http://creativecommons.org/ns#"
   xmlns:rdf="http://www.w3.org/1999/02/22-rdf-syntax-ns#"
   xmlns:svg="http://www.w3.org/2000/svg"
   xmlns="http://www.w3.org/2000/svg"
   xmlns:sodipodi="http://sodipodi.sourceforge.net/DTD/sodipodi-0.dtd"
   xmlns:inkscape="http://www.inkscape.org/namespaces/inkscape"
   version="1.1"
   id="Capa_1"
   x="0px"
   y="0px"
   width="64.734px"
   height="64.734px"
   viewBox="0 0 64.734 64.734"
   style="enable-background:new 0 0 64.734 64.734;"
   xml:space="preserve"
   sodipodi:docname="icon1.svg"
   inkscape:version="1.0.1 (3bc2e813f5, 2020-09-07)"><metadata
   id="metadata43"><rdf:RDF><cc:Work
       rdf:about=""><dc:format>image/svg+xml</dc:format><dc:type
         rdf:resource="http://purl.org/dc/dcmitype/StillImage" /></cc:Work></rdf:RDF></metadata><defs
   id="defs41" /><sodipodi:namedview
   pagecolor="#ffffff"
   bordercolor="#666666"
   borderopacity="1"
   objecttolerance="10"
   gridtolerance="10"
   guidetolerance="10"
   inkscape:pageopacity="0"
   inkscape:pageshadow="2"
   inkscape:window-width="1366"
   inkscape:window-height="705"
   id="namedview39"
   showgrid="false"
   inkscape:zoom="8.3109338"
   inkscape:cx="32.367001"
   inkscape:cy="32.867413"
   inkscape:window-x="-8"
   inkscape:window-y="32"
   inkscape:window-maximized="1"
   inkscape:current-layer="Capa_1" />
<g
   id="g6"
   style="opacity:0.91;fill:#ff8080"
   transform="matrix(1.0073536,0,0,1,-0.01317772,0)">
	<g
   id="g4"
   style="fill:#ff8080">
		<path
   d="M 59.583,49.727 C 59.136,48.606 58.239,48.381 57.12,47.934 51.968,45.918 47.712,45.246 42.784,43.455 42.335,43.23 40.991,42.334 40.991,39.869 c 0,-1.119 -0.225,-1.566 -1.344,-1.566 -0.447,0 -0.226,0 -0.447,-0.672 -0.449,-2.24 -0.225,-3.584 -0.225,-3.809 0,-0.225 0.446,-0.672 0.446,-0.896 1.793,-2.24 2.24,-5.152 2.24,-6.719 0,0 0.226,0.224 0.672,-0.673 0.447,-1.119 0.447,-1.345 0.896,-2.688 0.447,-0.896 0.447,-2.912 -0.672,-2.912 -0.672,0.225 -0.449,0 -0.449,-0.896 0,-2.688 0,-3.809 0,-6.496 -0.223,-2.239 -1.567,-3.584 -2.688,-4.48 -1.568,-1.12 -2.018,-1.344 -2.689,-2.016 -0.672,-0.448 -0.446,-1.12 0,-2.017 0.447,-0.447 0.896,-0.672 1.119,-0.896 0,0 -0.223,0 -0.447,0 4.257,2.24 7.169,6.72 7.169,11.647 v 3.584 c -0.673,0.448 -1.119,2.017 -1.119,3.36 0,1.119 0.226,2.016 0.446,2.688 l -0.895,4.703 c -0.447,0.225 -0.674,0.673 -0.674,1.12 0,0.672 0.449,1.345 1.346,1.345 0.672,0 1.344,-0.448 1.344,-1.345 0,-0.447 -0.225,-0.672 -0.446,-0.896 l 0.896,-4.031 c 1.119,-0.225 2.016,-1.793 2.016,-3.584 0,-1.345 -0.448,-2.688 -1.12,-3.36 V 14.78 C 46.366,6.495 39.647,0 31.582,0 23.519,0 16.799,6.72 16.799,14.783 v 3.584 c -0.673,0.448 -1.12,2.017 -1.12,3.36 0,2.016 0.896,3.584 2.016,3.584 1.12,0 2.016,-1.568 2.016,-3.584 0,-1.345 -0.447,-2.688 -1.119,-3.36 v -3.584 c 0,-7.392 6.048,-13.216 13.216,-13.216 2.016,0 4.032,0.448 5.825,1.344 -0.448,0 -4.033,0.448 -5.376,0.896 -2.688,0.672 -5.601,1.568 -7.841,3.584 -1.567,1.12 -2.912,2.688 -3.136,4.928 0,1.119 0,4.703 0,6.496 0,0.447 0,0.896 -0.448,0.672 -1.567,0 -0.672,2.464 -0.447,2.688 0.447,1.567 0.672,1.792 0.896,2.688 0.224,0.896 0.448,0.673 0.448,0.673 0.448,1.792 1.12,4.929 2.464,6.721 0.224,0.225 0.448,0.448 0.448,0.896 -0.225,1.119 -0.225,2.688 -0.448,3.81 0,0.224 -0.224,0.672 -0.448,0.672 -1.12,0 -1.344,0.673 -1.12,1.566 0,1.793 -1.12,3.137 -1.792,3.584 -2.464,1.12 -11.199,3.584 -13.888,4.479 -2.016,0.447 -2.464,1.119 -2.688,2.016 l -2.465,6.271 c 10.977,0 16.576,6.721 28,8.736 0,0 1.568,0.447 2.688,0.447 1.12,0 2.688,-0.447 2.688,-0.447 11.647,-2.018 19.713,-8.736 27.774,-8.736 z"
   id="path2"
   style="fill:#ff8080" />
	</g>
</g>
<g
   id="g8">
</g>
<g
   id="g10">
</g>
<g
   id="g12">
</g>
<g
   id="g14">
</g>
<g
   id="g16">
</g>
<g
   id="g18">
</g>
<g
   id="g20">
</g>
<g
   id="g22">
</g>
<g
   id="g24">
</g>
<g
   id="g26">
</g>
<g
   id="g28">
</g>
<g
   id="g30">
</g>
<g
   id="g32">
</g>
<g
   id="g34">
</g>
<g
   id="g36">
</g>
</svg>
