<svg width="21" height="21" viewBox="0 0 21 21" fill="none" xmlns="http://www.w3.org/2000/svg">
<path d="M10.4987 20.9167C11.6445 20.9167 12.582 19.9792 12.582 18.8333H8.41536C8.41536 19.9792 9.35286 20.9167 10.4987 20.9167ZM16.7487 14.6667V9.45834C16.7487 6.26042 15.0508 3.58334 12.0612 2.87501V2.16667C12.0612 1.30209 11.3633 0.604172 10.4987 0.604172C9.63411 0.604172 8.9362 1.30209 8.9362 2.16667V2.87501C5.95703 3.58334 4.2487 6.25001 4.2487 9.45834V14.6667L2.16536 16.75V17.7917H18.832V16.75L16.7487 14.6667ZM14.6654 15.7083H6.33203V9.45834C6.33203 6.87501 7.90495 4.77084 10.4987 4.77084C13.0924 4.77084 14.6654 6.87501 14.6654 9.45834V15.7083ZM5.89453 2.25001L4.40495 0.760422C1.90495 2.66667 0.259115 5.60417 0.113281 8.93751H2.19661C2.2704 7.61648 2.64123 6.3291 3.28148 5.17124C3.92173 4.01338 4.81491 3.01485 5.89453 2.25001ZM18.8008 8.93751H20.8841C20.7279 5.60417 19.082 2.66667 16.5924 0.760422L15.1133 2.25001C16.1883 3.01862 17.0775 4.01825 17.7156 5.17549C18.3537 6.33273 18.7245 7.6182 18.8008 8.93751Z" fill="#2D2D2D"/>
</svg>
